<svg xmlns="http://www.w3.org/2000/svg" enable-background="new 0 0 70 70" viewBox="0 0 70 70"><path d="M57,12.7H13c-1.6,0-3,1.3-3,3s1.3,3,3,3h0.4v24.6c0,2.4,2,4.4,4.4,4.4h11.4l-4,8.2c-0.2,0.5,0,1.1,0.5,1.3
	c0.1,0.1,0.3,0.1,0.4,0.1c0.4,0,0.7-0.2,0.9-0.6l4.5-9.1H34v7.6c0,0.6,0.4,1,1,1s1-0.4,1-1v-7.6h2.6l4.5,9.1
	c0.2,0.4,0.5,0.6,0.9,0.6c0.1,0,0.3,0,0.4-0.1c0.5-0.2,0.7-0.8,0.5-1.3l-4-8.2h11.4c2.4,0,4.4-2,4.4-4.4V18.6H57c1.6,0,3-1.3,3-3
	S58.7,12.7,57,12.7z M54.6,43.2c0,1.3-1.1,2.4-2.4,2.4H17.8c-1.3,0-2.4-1.1-2.4-2.4V31.6l6.5,1.1c0.1,0,0.1,0,0.2,0
	c0.5,0,0.9-0.3,1-0.8c0.1-0.5-0.3-1.1-0.8-1.2l-6.8-1.2v-2.4l6.5,1.1c0.1,0,0.1,0,0.2,0c0.5,0,0.9-0.3,1-0.8
	c0.1-0.5-0.3-1.1-0.8-1.2l-6.8-1.1v-2.4l6.5,1.1c0.1,0,0.1,0,0.2,0c0.5,0,0.9-0.3,1-0.8c0.1-0.5-0.3-1.1-0.8-1.2l-6.8-1.1v-2.1h39.2
	V43.2z M57,16.6H13c-0.5,0-1-0.4-1-1s0.4-1,1-1H57c0.5,0,1,0.4,1,1S57.6,16.6,57,16.6z"/><path d="M22.7,40.2c0.2,0.2,0.5,0.3,0.7,0.3s0.5-0.1,0.7-0.3l7.6-7.6l3.6,3.6c0.4,0.4,1,0.4,1.4,0l8.9-8.9v3c0,0.6,0.4,1,1,1
	s1-0.4,1-1v-5.4c0,0,0-0.1,0-0.1c0-0.1,0-0.2-0.1-0.3c-0.1-0.1-0.1-0.2-0.2-0.3l0,0c0,0,0,0,0,0C47.2,24,47.1,24,47,23.9
	c-0.1-0.1-0.3-0.1-0.4-0.1h-5.4c-0.6,0-1,0.4-1,1s0.4,1,1,1h3l-8.2,8.2l-3.6-3.6c-0.4-0.4-1-0.4-1.4,0l-8.3,8.3
	C22.3,39.2,22.3,39.8,22.7,40.2z"/></svg>