<svg xmlns="http://www.w3.org/2000/svg" data-name="Layer 1" viewBox="0 0 64 64"><path d="M3 62H15a1 1 0 0 0 1-1V53a7 7 0 0 0-3.779-6.208 5 5 0 1 0-6.442 0A7 7 0 0 0 2 53v8A1 1 0 0 0 3 62zM6 43a3 3 0 1 1 3 3A3 3 0 0 1 6 43zM4 53a5 5 0 0 1 10 0v7H4zM18 55v6a1 1 0 0 0 1 1h8a1 1 0 0 0 1-1V55a5 5 0 0 0-2.207-4.145 4 4 0 1 0-5.586 0A5 5 0 0 0 18 55zm3-7a2 2 0 1 1 2 2A2 2 0 0 1 21 48zm-1 7a3 3 0 0 1 6 0v5H20zM30 53v8a1 1 0 0 0 1 1H43a1 1 0 0 0 1-1V53a7 7 0 0 0-3.779-6.208 5 5 0 1 0-6.442 0A7 7 0 0 0 30 53zm4-10a3 3 0 1 1 3 3A3 3 0 0 1 34 43zm3 5a5.006 5.006 0 0 1 5 5v7H32V53A5.006 5.006 0 0 1 37 48zM46 55v6a1 1 0 0 0 1 1h8a1 1 0 0 0 1-1V55a5 5 0 0 0-2.207-4.145 4 4 0 1 0-5.586 0A5 5 0 0 0 46 55zm3-7a2 2 0 1 1 2 2A2 2 0 0 1 49 48zm-1 7a3 3 0 0 1 6 0v5H48zM58.414 17.05A6 6 0 1 0 49.54 17H44V3a1 1 0 0 0-1-1H3A1 1 0 0 0 2 3V29a1 1 0 0 0 1 1H17.5v1.52l-4.625 3.7A1 1 0 0 0 13.5 37h19a1 1 0 0 0 .625-1.781L28.5 31.52V30H43a1 1 0 0 0 1-1V24.251l4.833.95L45.856 35.728A1 1 0 0 0 46.818 37H61a1 1 0 0 0 1-1V21.558A4.374 4.374 0 0 0 58.414 17.05zM50 13a4 4 0 1 1 4 4A4 4 0 0 1 50 13zM26.875 32.781L29.649 35h-13.3l2.774-2.219A1 1 0 0 0 19.5 32V30h7v2A1 1 0 0 0 26.875 32.781zM42 28H4V4H42V17H39a1 1 0 0 0-.888.54l-2 3.856a1 1 0 0 0 .7 1.442L42 23.858zm18 7H48.141l2.912-10.3a1 1 0 0 0-.77-1.254L38.5 21.133 39.607 19H57.981A2.339 2.339 0 0 1 60 21.558z"/><path d="M7.541,14.839a1,1,0,0,0,1.472,1.036L11,14.776l1.987,1.1a1.013,1.013,0,0,0,.485.125,1,1,0,0,0,.987-1.161l-.391-2.4,1.648-1.689a1,1,0,0,0-.565-1.687l-2.236-.341-1.01-2.151a1,1,0,0,0-1.81,0L9.085,8.726l-2.236.341a1,1,0,0,0-.565,1.687l1.648,1.689Zm2.374-4.217a1,1,0,0,0,.754-.564l.331-.7.331.705a1,1,0,0,0,.754.564l.84.128-.641.657a1,1,0,0,0-.271.859l.14.862-.669-.37a1,1,0,0,0-.968,0l-.669.37.14-.862a1,1,0,0,0-.271-.859l-.641-.657Z"/><rect width="11" height="2" x="18" y="11"/><rect width="15" height="2" x="21" y="15"/><rect width="13" height="2" x="6.5" y="19"/><rect width="22" height="2" x="9" y="23"/></svg>