<svg xmlns="http://www.w3.org/2000/svg" data-name="Layer 1" viewBox="0 0 512 512"><path fill="#272a33" d="M146.5,451.65693h-94a7.5,7.5,0,0,0,0,15h94a7.5,7.5,0,0,0,0-15ZM227.27637,494.944,199,470.70771V384.20478a22.52586,22.52586,0,0,0-22.5-22.5H22.5a22.52586,22.52586,0,0,0-22.5,22.5V489.15693a22.52586,22.52586,0,0,0,22.5,22.5H221.09375a9.5004,9.5004,0,0,0,6.18262-16.71289ZM22.5,496.65693a7.5082,7.5082,0,0,1-7.5-7.5V384.20478a7.5082,7.5082,0,0,1,7.5-7.5h154a7.5082,7.5082,0,0,1,7.5,7.5v89.95215a7.50056,7.50056,0,0,0,2.61914,5.69434l19.60645,16.80566ZM387.47559,262.18037A124.52442,124.52442,0,1,0,512,386.70478,124.66533,124.66533,0,0,0,387.47559,262.18037Zm0,234.04883a108.914,108.914,0,0,1-62.94629-19.94678,65.1875,65.1875,0,0,1,125.90234-.00659A108.91421,108.91421,0,0,1,387.47559,496.2292ZM354.75391,380.29267a32.72217,32.72217,0,1,1,32.72168,32.72168A32.75852,32.75852,0,0,1,354.75391,380.29267Zm108.18115,85.72168a80.3938,80.3938,0,0,0-46.68555-47.68066,47.721,47.721,0,1,0-57.49414.0415,80.46894,80.46894,0,0,0-46.71924,47.658,109.52432,109.52432,0,1,1,150.89893-.0188ZM146.5,406.65693h-94a7.5,7.5,0,0,0,0,15h94a7.5,7.5,0,0,0,0-15Zm313-317.04834h-94a7.5,7.5,0,0,0,0,15h94a7.5,7.5,0,0,0,0-15ZM124.52441-.34307A124.52417,124.52417,0,1,0,249.04883,124.18135,124.66533,124.66533,0,0,0,124.52441-.34307Zm0,234.04834A108.9166,108.9166,0,0,1,61.57812,213.759,65.18689,65.18689,0,0,1,187.48,213.75215,108.91427,108.91427,0,0,1,124.52441,233.70527Zm-32.72265-115.936a32.72217,32.72217,0,1,1,32.72265,32.72217A32.75977,32.75977,0,0,1,91.80176,117.76924Zm108.18213,85.72168a80.395,80.395,0,0,0-46.686-47.68042,47.72138,47.72138,0,1,0-57.49414.04174,80.46918,80.46918,0,0,0-46.71826,47.65748,109.52407,109.52407,0,1,1,150.89844-.0188ZM459.5,44.60859h-94a7.5,7.5,0,0,0,0,15h94a7.5,7.5,0,0,0,0-15Zm30-44.95166h-154a22.52554,22.52554,0,0,0-22.5,22.5v86.502l-28.27832,24.23779a9.50062,9.50062,0,0,0,6.18457,16.71191H489.5a22.52554,22.52554,0,0,0,22.5-22.5V22.15693A22.52554,22.52554,0,0,0,489.5-.34307ZM497,127.10859a7.5082,7.5082,0,0,1-7.5,7.5H305.77441l19.60645-16.80566A7.50056,7.50056,0,0,0,328,112.10859V22.15693a7.5082,7.5082,0,0,1,7.5-7.5h154a7.5082,7.5082,0,0,1,7.5,7.5Z"/></svg>