<svg xmlns="http://www.w3.org/2000/svg" data-name="Layer 1" viewBox="0 0 512 512"><g data-name="&lt;Group&gt;"><path d="M328 322.753c0-7.872 6.008-14.753 13.1-14.753h35.581c7.094 0 13.316 6.881 13.316 14.753V334h16V322.753C406 306.059 392.6 292 376.684 292H341.1c-15.917 0-29.1 14.059-29.1 30.753V334h16zM273 398v60.325C273 466.2 278.63 473 285.725 473H435.087c7.1 0 12.913-6.8 12.913-14.675V398H391v11.333A7.857 7.857 0 0 1 382.846 417H334.665A7.442 7.442 0 0 1 327 409.333V398zM327 371.364c0-4.419 3.247-8.364 7.665-8.364h48.181A8.451 8.451 0 0 1 391 371.364V382h69V356.159c0-7.872-5.425-14.159-12.52-14.159H273.336c-7.1 0-13.336 6.287-13.336 14.159V382h67z" data-name="&lt;Path&gt;"/><rect width="32" height="22" x="343" y="379" data-name="&lt;Path&gt;"/><path d="M136.972 39.4l.048 0 .046 0zM137 114.9a30.052 30.052 0 0 0 30-30.123V69.523a30 30 0 1 0-60 0V84.774A30.051 30.051 0 0 0 137 114.9zM161.021 472.6a14.734 14.734 0 0 0 14.9-14.133L181.937 278H94.96l5.791 180.5A14.63 14.63 0 0 0 130 457.8V306.464a8 8 0 0 1 16 0V457.8A15.009 15.009 0 0 0 161.021 472.6z" data-name="&lt;Path&gt;"/><path d="M52,183.2v96.3a13.436,13.436,0,0,0,3.747,9.453A13.024,13.024,0,0,0,64.886,293h.136C72.135,292,78,286.325,78,278.9V221.94a8,8,0,0,1,16,0V248.3c0,.358.064.852.076,1.225L94.437,262H182.46l.54-8.692V221.94a8,8,0,0,1,16,0v26.315c0,.538.139,1.094.12,1.662l-.12,3.675v25.884a13,13,0,1,0,26,0V183.2c0-.27-.068-.539-.041-.807a31.484,31.484,0,0,0-28.344-34.431,31.607,31.607,0,0,0-3.183.043h-16.91l-32.7,30.484c-.06.057-.127-.1-.189-.044-.095.084-.19.166-.287.244-.113.09-.226.175-.342.258s-.2.145-.31.213-.239.15-.361.22c-.105.061-.212.12-.32.176-.126.065-.253.126-.382.184-.108.049-.217.1-.327.139-.133.053-.266.1-.4.146-.111.037-.221.073-.333.1-.136.039-.272.074-.409.106-.114.026-.228.051-.344.072-.135.026-.272.047-.41.065-.118.016-.236.03-.355.04-.134.012-.268.02-.4.025s-.247.007-.37.006-.259-.006-.389-.013-.255-.018-.382-.031-.251-.03-.376-.049-.258-.042-.387-.068-.244-.053-.366-.084-.254-.067-.38-.106-.241-.077-.361-.12-.244-.091-.365-.141-.241-.1-.36-.16-.228-.109-.341-.17-.24-.131-.359-.2-.209-.122-.312-.191c-.12-.08-.238-.153-.355-.241-.1-.072-.19-.12-.284-.2-.115-.095-.228-.144-.339-.246-.051-.047-.1.014-.154-.034L101.321,148H83.266a31.234,31.234,0,0,0-31.577,31.2,31.735,31.735,0,0,0,.2,3.187C51.914,182.655,52,182.925,52,183.2Z" data-name="&lt;Path&gt;"/></g></svg>